<svg fill="#FFFFFF" xmlns="http://www.w3.org/2000/svg"  viewBox="0 0 50 50" width="50px" height="50px"><path d="M 18 3 C 16.346 3 15 4.346 15 6 L 15 24 L 35 24 L 35 6 C 35 4.346 33.654 3 32 3 L 18 3 z M 11.984375 17.986328 A 1.0001 1.0001 0 0 0 11 19 L 11 34 C 11 37.301625 13.698375 40 17 40 L 22 40 L 22 46 L 17 46 A 1.0001 1.0001 0 1 0 17 48 L 33 48 A 1.0001 1.0001 0 1 0 33 46 L 28 46 L 28 40 L 33 40 C 36.301625 40 39 37.301625 39 34 L 39 19 A 1.0001 1.0001 0 1 0 37 19 L 37 34 C 37 36.220375 35.220375 38 33 38 L 17 38 C 14.779625 38 13 36.220375 13 34 L 13 19 A 1.0001 1.0001 0 0 0 11.984375 17.986328 z M 15 26 L 15 33 C 15 34.654 16.346 36 18 36 L 32 36 C 33.654 36 35 34.654 35 33 L 35 26 L 15 26 z M 25 29 C 26.105 29 27 29.895 27 31 C 27 32.105 26.105 33 25 33 C 23.895 33 23 32.105 23 31 C 23 29.895 23.895 29 25 29 z"/></svg>