<?xml version="1.0" encoding="utf-8"?>
<!-- Generator: Adobe Illustrator 27.0.0, SVG Export Plug-In . SVG Version: 6.00 Build 0)  -->
<svg version="1.1"
	 id="svg1139" xmlns:sodipodi="http://sodipodi.sourceforge.net/DTD/sodipodi-0.dtd" xmlns:svg="http://www.w3.org/2000/svg" xmlns:inkscape="http://www.inkscape.org/namespaces/inkscape" xmlns:rdf="http://www.w3.org/1999/02/22-rdf-syntax-ns#" xmlns:dc="http://purl.org/dc/elements/1.1/" xmlns:cc="http://creativecommons.org/ns#" inkscape:version="0.92.3 (2405546, 2018-03-11)" sodipodi:docname="Chatbot icon.svg"
	 xmlns="http://www.w3.org/2000/svg" xmlns:xlink="http://www.w3.org/1999/xlink" x="0px" y="0px" viewBox="0 0 56.7 56.7"
	 style="enable-background:new 0 0 56.7 56.7;" xml:space="preserve">
<style type="text/css">
	.st0{fill-rule:evenodd;clip-rule:evenodd;fill:#FFFFFF;}
</style>
<sodipodi:namedview  bordercolor="#666666" borderopacity="1.0" fit-margin-bottom="0" fit-margin-left="0" fit-margin-right="0" fit-margin-top="0" id="base" inkscape:bbox-nodes="true" inkscape:bbox-paths="true" inkscape:current-layer="layer1" inkscape:cx="37.795276" inkscape:cy="37.795276" inkscape:document-units="mm" inkscape:object-paths="true" inkscape:pageopacity="0.0" inkscape:pageshadow="2" inkscape:snap-bbox="true" inkscape:snap-bbox-edge-midpoints="true" inkscape:snap-bbox-midpoints="true" inkscape:snap-intersection-paths="true" inkscape:snap-midpoints="true" inkscape:snap-smooth-nodes="true" inkscape:window-height="1041" inkscape:window-maximized="0" inkscape:window-width="944" inkscape:window-x="960" inkscape:window-y="0" inkscape:zoom="6.9717708" pagecolor="#ffffff" showgrid="false">
	</sodipodi:namedview>
<g id="layer1" transform="translate(-25.414562,-111.28127)" inkscape:groupmode="layer" inkscape:label="Calque 1">
	
		<path id="rect6094-5-9" inkscape:connector-curvature="0" sodipodi:nodetypes="sccssssccccccccccssccccccssssccsccscscscsccccccccccc" class="st0" d="
		M53.8,123.5c-4.1,0-8.2,1.4-11.5,4.2c-2,1.7-3.5,3.7-4.6,6c-0.1,0-0.3,0-0.4,0c-2.7,0-4.8,2.1-4.8,4.8v6c0,2.7,2.1,4.8,4.8,4.8
		c0.2,0,0.3,0,0.4,0c0.2,0.4,0.4,0.8,0.6,1.2c0.9,1.6,3.2,0.2,2.3-1.3c-3.7-6.4-2.3-14.5,3.4-19.3c5.7-4.8,13.9-4.8,19.6,0
		c5.7,4.8,7.1,12.9,3.4,19.3l0,0.1l0,0.1c0,0-1.8,4-5.3,4l-4.5,0c-0.4-0.6-1.1-1-1.9-1h-2.9c-1.3,0-2.3,1-2.3,2.3
		c0,0.8,0.5,1.4,1.7,1.4l9.9,0c5.3,0,7.6-5.2,7.7-5.4v0c0.2-0.4,0.4-0.8,0.6-1.2c0.2,0,0.3,0,0.5,0c2.7,0,4.8-2.1,4.8-4.8v-6
		c0-2.7-2.1-4.8-4.8-4.8c-0.2,0-0.3,0-0.5,0c-1.1-2.2-2.6-4.3-4.6-6C61.9,124.9,57.8,123.5,53.8,123.5L53.8,123.5z M47.9,132
		c-1-0.1-2,0.2-2.8,1c-2.2,2.3-3.6,5.5-3.6,8.9c0,2.8,0.9,5.9,2.5,6c2.2,0.2,5.7-1.3,9.7-1.3c4.2,0,7.9,1.6,10.1,1.3
		c1.3-0.2,2.1-3.4,2.1-6c0-3.4-1.4-6.5-3.6-8.9c-2.2-2.3-5.3,0-8.6,0C51.7,133,49.7,132.1,47.9,132z M47.5,137.7
		c1.2,0,2.2,1,2.2,2.2c0,1.2-1,2.2-2.2,2.2c-1.2,0-2.2-1-2.2-2.2C45.2,138.7,46.2,137.7,47.5,137.7z M60.1,137.7
		c1.2,0,2.2,1,2.2,2.2c0,1.2-1,2.2-2.2,2.2c-1.2,0-2.2-1-2.2-2.2C57.8,138.7,58.8,137.7,60.1,137.7z"/>
</g>
</svg>
